<svg width="256" height="256" viewBox="128 128 256 256" fill="none" xmlns="http://www.w3.org/2000/svg">
<mask id="path-1-inside-1_1_2" fill="white">
<path fill-rule="evenodd" clip-rule="evenodd" d="M139.396 203.176C132.076 219.303 128 237.216 128 256.083C128 279.376 134.214 301.217 145.073 320.036C180.168 292.605 203.515 256.959 219.854 220.289L139.396 203.176ZM239.459 245.601C221.697 281.835 197.332 316.514 162.623 343.688C185.975 368.601 219.171 384.165 256 384.165C265.079 384.165 273.936 383.22 282.48 381.421C259.62 342.67 245.792 296.588 239.459 245.601ZM311.651 371.459C354.467 350.742 384 306.863 384 256.083C384 255.789 383.999 255.495 383.997 255.201L265.509 229.999C270.489 282.693 285.45 331.702 311.651 371.459ZM380.569 226.5L258.293 200.492C266.99 175.994 273.408 151.898 278.676 130.004C328.874 138.983 368.931 177.246 380.569 226.5ZM249.432 128.166C244.558 148.861 238.538 171.563 230.215 194.52L154.25 178.363C176.397 149.374 210.637 130.128 249.432 128.166Z"/>
</mask>
<path fill-rule="evenodd" clip-rule="evenodd" d="M139.396 203.176C132.076 219.303 128 237.216 128 256.083C128 279.376 134.214 301.217 145.073 320.036C180.168 292.605 203.515 256.959 219.854 220.289L139.396 203.176ZM239.459 245.601C221.697 281.835 197.332 316.514 162.623 343.688C185.975 368.601 219.171 384.165 256 384.165C265.079 384.165 273.936 383.22 282.48 381.421C259.62 342.67 245.792 296.588 239.459 245.601ZM311.651 371.459C354.467 350.742 384 306.863 384 256.083C384 255.789 383.999 255.495 383.997 255.201L265.509 229.999C270.489 282.693 285.45 331.702 311.651 371.459ZM380.569 226.5L258.293 200.492C266.99 175.994 273.408 151.898 278.676 130.004C328.874 138.983 368.931 177.246 380.569 226.5ZM249.432 128.166C244.558 148.861 238.538 171.563 230.215 194.52L154.25 178.363C176.397 149.374 210.637 130.128 249.432 128.166Z" fill="#D12E2E"/>
<path d="M139.396 203.176L142.725 187.526L130.143 184.85L124.826 196.563L139.396 203.176ZM145.073 320.036L131.215 328.033L140.418 343.982L154.926 332.642L145.073 320.036ZM219.854 220.289L234.469 226.801L242.512 208.75L223.183 204.639L219.854 220.289ZM239.459 245.601L255.336 243.628L248.719 190.359L225.092 238.558L239.459 245.601ZM162.623 343.688L152.76 331.09L138.989 341.871L150.949 354.63L162.623 343.688ZM282.48 381.421L285.776 397.078L307.585 392.488L296.261 373.292L282.48 381.421ZM311.651 371.459L298.291 380.263L306.004 391.966L318.62 385.861L311.651 371.459ZM383.997 255.201L399.997 255.093L399.91 242.227L387.326 239.551L383.997 255.201ZM265.509 229.999L268.837 214.349L247.53 209.817L249.58 231.505L265.509 229.999ZM258.293 200.492L243.215 195.139L237.106 212.344L254.964 216.142L258.293 200.492ZM380.569 226.5L377.24 242.15L401.949 247.405L396.14 222.82L380.569 226.5ZM278.676 130.004L281.493 114.254L266.648 111.598L263.12 126.261L278.676 130.004ZM230.215 194.52L226.887 210.17L240.511 213.068L245.258 199.973L230.215 194.52ZM249.432 128.166L265.006 131.833L269.886 111.111L248.624 112.186L249.432 128.166ZM154.25 178.363L141.536 168.649L126.178 188.75L150.921 194.013L154.25 178.363ZM144 256.083C144 239.542 147.57 223.88 153.966 209.788L124.826 196.563C116.583 214.726 112 234.891 112 256.083H144ZM158.932 312.039C149.438 295.587 144 276.495 144 256.083H112C112 282.257 118.99 306.846 131.215 328.033L158.932 312.039ZM154.926 332.642C192.662 303.147 217.411 265.084 234.469 226.801L205.239 213.777C189.618 248.835 167.673 282.064 135.22 307.43L154.926 332.642ZM223.183 204.639L142.725 187.526L136.067 218.826L216.525 235.939L223.183 204.639ZM225.092 238.558C208.086 273.249 185.087 305.781 152.76 331.09L172.486 356.286C209.578 327.247 235.308 290.42 253.825 252.643L225.092 238.558ZM256 368.165C223.778 368.165 194.752 354.569 174.296 332.746L150.949 354.63C177.199 382.634 214.565 400.165 256 400.165V368.165ZM279.185 365.764C271.718 367.336 263.964 368.165 256 368.165V400.165C266.193 400.165 276.155 399.103 285.776 397.078L279.185 365.764ZM296.261 373.292C274.778 336.874 261.473 293.024 255.336 243.628L223.581 247.573C230.112 300.153 244.462 348.465 268.7 389.551L296.261 373.292ZM368 256.083C368 300.502 342.182 338.911 304.682 357.056L318.62 385.861C366.752 362.572 400 313.225 400 256.083H368ZM367.997 255.309C367.999 255.567 368 255.824 368 256.083H400C400 255.753 399.999 255.423 399.997 255.093L367.997 255.309ZM387.326 239.551L268.837 214.349L262.18 245.649L380.668 270.851L387.326 239.551ZM249.58 231.505C254.745 286.157 270.329 337.834 298.291 380.263L325.011 362.654C300.57 325.569 286.233 279.229 281.438 228.494L249.58 231.505ZM254.964 216.142L377.24 242.15L383.898 210.85L261.621 184.842L254.964 216.142ZM263.12 126.261C257.913 147.901 251.646 171.39 243.215 195.139L273.371 205.845C282.335 180.597 288.903 155.894 294.232 133.747L263.12 126.261ZM275.858 145.754C319.742 153.604 354.817 187.092 364.998 230.179L396.14 222.82C383.045 167.399 338.006 124.363 281.493 114.254L275.858 145.754ZM245.258 199.973C253.878 176.193 260.063 152.823 265.006 131.833L233.858 124.498C229.054 144.898 223.198 166.932 215.173 189.067L245.258 199.973ZM150.921 194.013L226.887 210.17L233.544 178.87L157.578 162.713L150.921 194.013ZM166.964 188.076C186.372 162.673 216.328 145.86 250.24 144.145L248.624 112.186C204.946 114.395 166.423 136.074 141.536 168.649L166.964 188.076Z" fill="black" mask="url(#path-1-inside-1_1_2)"/>
</svg>
